<svg width="36" height="36" viewBox="0 0 36 36" fill="none" xmlns="http://www.w3.org/2000/svg">
<g id="Frame" clip-path="url(#clip0_485_4670)">
<g id="emblem">
<g id="&#208;&#147;&#208;&#181;&#209;&#128;&#208;&#177;">
<g id="logo slider">
<path id="Shape" d="M24.5371 12.089C24.2826 11.8891 23.9834 11.7538 23.6652 11.695C23.347 11.6361 23.0192 11.6553 22.7101 11.751C23.0465 11.4119 23.4651 11.1659 23.9251 11.037C24.1021 11.1522 24.2497 11.3072 24.356 11.4897C24.4623 11.6723 24.5243 11.8782 24.5371 12.089ZM26.3261 10.056C25.9591 8.085 21.3781 9.391 19.0711 8.556C19.0261 9.13 19.7811 10.051 20.5021 10.392C18.9554 11.9635 18.0428 14.0504 17.9391 16.253C17.8348 14.0506 16.9223 11.9639 15.3761 10.392C16.0971 10.051 16.8521 9.13 16.8071 8.556C14.5011 9.393 9.92008 8.087 9.55108 10.056C9.52141 10.2741 9.53624 10.496 9.59468 10.7083C9.65311 10.9206 9.75394 11.1188 9.89108 11.291C9.95929 11.1084 10.0783 10.949 10.234 10.8317C10.3897 10.7145 10.5757 10.6441 10.7701 10.629C13.9981 10.141 16.6911 15.115 14.2601 17.129C14.252 17.1355 14.2462 17.1445 14.2435 17.1545C14.2409 17.1646 14.2415 17.1752 14.2452 17.1849C14.249 17.1946 14.2558 17.2029 14.2646 17.2084C14.2734 17.214 14.2837 17.2167 14.2941 17.216H21.5861C21.5965 17.2167 21.6068 17.214 21.6156 17.2084C21.6243 17.2029 21.6311 17.1946 21.6349 17.1849C21.6387 17.1752 21.6393 17.1646 21.6366 17.1545C21.634 17.1445 21.6282 17.1355 21.6201 17.129C19.1881 15.118 21.8821 10.144 25.1081 10.629C25.3026 10.6439 25.4888 10.7142 25.6448 10.8315C25.8007 10.9488 25.9198 11.1082 25.9881 11.291C26.125 11.1187 26.2257 10.9204 26.2839 10.7082C26.3422 10.4959 26.3559 10.2741 26.3261 10.056ZM27.1121 5.532C27.0541 5.346 28.9461 5.341 28.9461 6.525C28.9461 7.318 27.8141 7.694 27.8141 8.519C27.827 8.67111 27.8854 8.8158 27.9817 8.93424C28.078 9.05267 28.2078 9.13936 28.3541 9.183C28.0621 7.861 29.2681 8.554 29.5931 8.801C28.9461 7.022 30.4021 7.033 30.2601 6.219C30.1601 5.649 28.8941 5.819 28.4361 5.533C27.6231 5.022 26.6611 3.033 26.0281 5.022C26.2904 5.21598 26.4826 5.48995 26.5757 5.80265C26.6688 6.11534 26.6578 6.44982 26.5443 6.7557C26.4308 7.06158 26.2209 7.3223 25.9464 7.49856C25.6718 7.67483 25.3474 7.75711 25.0221 7.733C25.0154 7.81754 25.0154 7.90246 25.0221 7.987C26.8111 7.9 27.4341 6.587 27.1081 5.533L27.1121 5.532ZM6.24208 8.8C6.56808 8.553 7.77308 7.86 7.48208 9.182C7.62825 9.13831 7.75785 9.05159 7.854 8.93314C7.95015 8.8147 8.00837 8.67003 8.02108 8.518C8.02108 7.694 6.88908 7.318 6.88908 6.524C6.88908 5.34 8.78208 5.345 8.72408 5.531C8.40008 6.584 9.02008 7.9 10.8091 7.986C10.8157 7.90146 10.8157 7.81654 10.8091 7.732C10.4839 7.75521 10.16 7.67221 9.88601 7.49546C9.61206 7.31872 9.40291 7.0578 9.29002 6.75195C9.17713 6.4461 9.16661 6.11187 9.26003 5.79953C9.35346 5.48718 9.54579 5.21362 9.80808 5.02C9.17408 3.029 8.20808 5.02 7.40008 5.531C6.94208 5.819 5.67608 5.648 5.57608 6.217C5.43308 7.031 6.88808 7.017 6.24108 8.799L6.24208 8.8ZM11.3221 12.088C11.5768 11.8877 11.8763 11.7523 12.1949 11.6934C12.5135 11.6346 12.8416 11.654 13.1511 11.75C12.8142 11.4105 12.3948 11.1644 11.9341 11.036C11.7572 11.1513 11.6097 11.3064 11.5034 11.4889C11.3972 11.6714 11.3351 11.8762 11.3221 12.087V12.088ZM18.7901 1.064L17.9171 0L17.0441 1.064L17.9171 2.184L18.7901 1.064ZM23.7711 4.28L23.1501 3.524L22.5291 4.28L23.1501 5.02L23.7711 4.28ZM28.8001 26.135L28.0131 25.303L27.2271 26.135L28.0131 26.866L28.8001 26.135ZM13.3051 4.28L12.6841 3.524L12.0631 4.28L12.6841 5.02L13.3051 4.28ZM11.5271 7.986H13.8411C14.5362 8.03972 15.2278 7.8451 15.7929 7.43676C16.358 7.02842 16.7599 6.43284 16.9271 5.756H18.9071C19.0743 6.43284 19.4762 7.02842 20.0413 7.43676C20.6063 7.8451 21.298 8.03972 21.9931 7.986H24.3071C24.5005 7.72841 24.6699 7.45359 24.8131 7.165C25.1791 6.186 24.7131 5.73 24.0301 5.73L23.1501 6.53L22.2691 5.73C21.5871 5.73 21.1211 6.186 21.4861 7.165C21.5593 7.3295 21.6477 7.48685 21.7501 7.635C21.247 7.58219 20.7733 7.37223 20.3964 7.03493C20.0194 6.69763 19.7583 6.25014 19.6501 5.756C19.9298 5.31928 20.1835 4.8665 20.4101 4.4C20.9571 3 20.2591 2.424 19.2371 2.424L17.9171 3.976L16.6001 2.426C15.5781 2.426 14.8791 3 15.4281 4.402C15.6538 4.86792 15.9069 5.32005 16.1861 5.756C16.0776 6.25 15.8164 6.69733 15.4395 7.03458C15.0626 7.37183 14.5891 7.5819 14.0861 7.635C14.1894 7.48743 14.2778 7.32999 14.3501 7.165C14.7151 6.187 14.2501 5.73 13.5671 5.73L12.6871 6.53L11.8061 5.73C11.1241 5.73 10.6581 6.187 11.0231 7.165C11.1668 7.45372 11.3368 7.72856 11.5311 7.986H11.5271ZM35.4551 15.16C33.4535 16.1021 31.2233 16.4492 29.0301 16.16C29.0647 16 29.0944 15.8387 29.1191 15.676C30.9178 15.5581 32.6813 15.1213 34.3271 14.386C34.9687 14.022 35.4508 13.431 35.6784 12.7294C35.9061 12.0278 35.8628 11.2663 35.5571 10.595C35.5528 10.5874 35.5467 10.581 35.5395 10.5762C35.5322 10.5714 35.524 10.5683 35.5153 10.5672C35.5067 10.5661 35.4979 10.5671 35.4897 10.57C35.4815 10.5729 35.4741 10.5777 35.4681 10.584C33.8 12.423 31.6117 13.7107 29.1941 14.276C29.1841 14.089 29.1671 13.902 29.1421 13.716C30.7427 12.9048 32.1923 11.8251 33.4281 10.524C34.0068 9.88642 34.3229 9.05357 34.3131 8.19259C34.3032 7.33161 33.9682 6.5062 33.3751 5.882C33.369 5.87688 33.362 5.8731 33.3543 5.87091C33.3467 5.86872 33.3387 5.86818 33.3309 5.86931C33.323 5.87045 33.3155 5.87323 33.3088 5.87749C33.3021 5.88175 33.2964 5.88737 33.2921 5.894C32.9211 6.506 29.4441 12.127 25.6261 14.553L25.4841 14.641C25.4589 14.6552 25.4376 14.6752 25.4218 14.6994C25.4061 14.7236 25.3964 14.7512 25.3935 14.78C25.3907 14.8087 25.3948 14.8377 25.4055 14.8645C25.4162 14.8913 25.4332 14.9151 25.4551 14.934C25.678 15.1306 25.8568 15.3722 25.9798 15.6427C26.1029 15.9133 26.1674 16.2068 26.1691 16.504C26.1539 17.0314 25.9533 17.5366 25.6025 17.9308C25.2517 18.3249 24.7732 18.5828 24.2511 18.659C23.5391 18.7729 22.8101 18.7118 22.1271 18.481C22.1194 18.478 22.1111 18.4768 22.1028 18.4776C22.0946 18.4785 22.0867 18.4812 22.0797 18.4857C22.0728 18.4902 22.067 18.4963 22.0629 18.5035C22.0588 18.5107 22.0565 18.5187 22.0561 18.527V21.921C22.0582 21.9318 22.0636 21.9417 22.0716 21.9494C22.0795 21.957 22.0896 21.9621 22.1005 21.9638C22.1114 21.9655 22.1226 21.9639 22.1325 21.9591C22.1424 21.9543 22.1507 21.9466 22.1561 21.937C22.3783 21.4727 22.7313 21.0835 23.1717 20.817C23.6121 20.5506 24.1207 20.4185 24.6351 20.437C24.7522 21.5195 25.1394 22.5552 25.7611 23.449C25.9207 23.6563 26.121 23.8289 26.3496 23.9562C26.5783 24.0835 26.8305 24.1627 27.0908 24.1891C27.3512 24.2155 27.6142 24.1885 27.8637 24.1097C28.1132 24.031 28.3441 23.9021 28.5421 23.731C28.5469 23.7257 28.5504 23.7193 28.5523 23.7123C28.5543 23.7054 28.5545 23.6981 28.5531 23.691C28.5521 23.6838 28.5494 23.677 28.5452 23.6711C28.5411 23.6651 28.5355 23.6603 28.5291 23.657C27.2076 22.9229 26.2286 21.6978 25.8041 20.247C25.9599 20.1945 26.1122 20.132 26.2601 20.06C26.8157 21.0348 27.6152 21.8484 28.5801 22.421C29.0455 22.7268 29.6123 22.838 30.1588 22.7307C30.7052 22.6234 31.1879 22.3061 31.5031 21.847C31.5069 21.8396 31.5089 21.8313 31.5087 21.8229C31.5085 21.8145 31.5062 21.8063 31.5021 21.799C31.4979 21.7917 31.4919 21.7856 31.4848 21.7813C31.4776 21.7769 31.4695 21.7744 31.4611 21.774C30.6373 21.671 29.8424 21.4042 29.1234 20.9892C28.4043 20.5743 27.7755 20.0197 27.2741 19.358C27.3911 19.25 27.5051 19.14 27.6121 19.02C28.6848 19.8481 29.9326 20.4204 31.2601 20.693C32.5211 20.864 33.9501 20.462 33.9851 18.993C33.9851 18.9857 33.9836 18.9785 33.9807 18.9719C33.9778 18.9652 33.9735 18.9592 33.9681 18.9543C33.9628 18.9494 33.9564 18.9457 33.9495 18.9434C33.9426 18.9411 33.9353 18.9403 33.9281 18.941C32.0256 19.0686 30.1222 18.7057 28.4001 17.887C28.4731 17.747 28.5431 17.604 28.6061 17.46C30.1458 17.8436 31.731 18.0135 33.3171 17.965C33.6472 17.9367 33.9681 17.8416 34.2603 17.6856C34.5525 17.5296 34.81 17.3158 35.0172 17.0572C35.2243 16.7986 35.3767 16.5007 35.4652 16.1815C35.5538 15.8622 35.5765 15.5283 35.5321 15.2C35.5307 15.1917 35.5275 15.1838 35.5225 15.1769C35.5176 15.1701 35.5111 15.1645 35.5036 15.1606C35.4962 15.1567 35.4879 15.1546 35.4794 15.1545C35.471 15.1544 35.4627 15.1563 35.4551 15.16ZM7.23008 17.46C7.29308 17.605 7.36208 17.747 7.43608 17.887C5.71177 18.7079 3.80556 19.0722 1.90008 18.945C1.88549 18.945 1.8715 18.9508 1.86119 18.9611C1.85087 18.9714 1.84508 18.9854 1.84508 19C1.88108 20.466 3.31008 20.868 4.57108 20.7C5.89904 20.4248 7.14671 19.8502 8.21908 19.02C8.32608 19.139 8.43908 19.251 8.55508 19.358C8.05384 20.0194 7.42538 20.5739 6.70666 20.9888C5.98795 21.4037 5.1935 21.6707 4.37008 21.774C4.3617 21.7744 4.35355 21.7769 4.34639 21.7813C4.33923 21.7856 4.33329 21.7917 4.32911 21.799C4.32492 21.8063 4.32264 21.8145 4.32246 21.8229C4.32228 21.8313 4.32421 21.8396 4.32808 21.847C4.64329 22.3061 5.12584 22.6234 5.67226 22.7309C6.21868 22.8384 6.78546 22.7275 7.25108 22.422C8.21513 21.8479 9.01433 21.0342 9.57108 20.06C9.71894 20.132 9.87125 20.1945 10.0271 20.247C9.6016 21.6979 8.62193 22.9229 7.30008 23.657C7.29355 23.6603 7.28789 23.6651 7.28355 23.671C7.27921 23.6769 7.27631 23.6838 7.27508 23.691C7.27394 23.6981 7.27434 23.7053 7.27623 23.7122C7.27813 23.7191 7.28149 23.7255 7.28608 23.731C7.4841 23.9022 7.71501 24.0313 7.96465 24.1101C8.21428 24.189 8.4774 24.216 8.73786 24.1896C8.99832 24.1632 9.25066 24.0839 9.47939 23.9566C9.70812 23.8292 9.90845 23.6565 10.0681 23.449C10.6901 22.5554 11.077 21.5195 11.1931 20.437C11.7076 20.4185 12.2163 20.5506 12.6568 20.8171C13.0974 21.0835 13.4505 21.4727 13.6731 21.937C13.6785 21.9466 13.6867 21.9543 13.6967 21.9591C13.7066 21.9639 13.7178 21.9655 13.7286 21.9638C13.7395 21.9621 13.7496 21.957 13.7576 21.9494C13.7655 21.9417 13.7709 21.9318 13.7731 21.921V18.529C13.7727 18.5207 13.7704 18.5127 13.7662 18.5055C13.7621 18.4983 13.7564 18.4922 13.7494 18.4877C13.7425 18.4832 13.7345 18.4805 13.7263 18.4796C13.7181 18.4788 13.7098 18.48 13.7021 18.483C13.019 18.7138 12.29 18.7748 11.5781 18.661C11.0559 18.5848 10.5772 18.327 10.2263 17.9328C9.8753 17.5387 9.67448 17.0335 9.65908 16.506C9.66108 16.2085 9.72569 15.9148 9.84871 15.644C9.97173 15.3731 10.1504 15.1312 10.3731 14.934C10.3952 14.9155 10.4126 14.8919 10.4236 14.8653C10.4346 14.8386 10.439 14.8096 10.4363 14.7809C10.4337 14.7522 10.4241 14.7245 10.4083 14.7003C10.3926 14.6761 10.3713 14.6561 10.3461 14.642L10.2031 14.554C6.39308 12.13 2.91708 6.514 2.54408 5.9C2.53965 5.89303 2.53376 5.88711 2.52681 5.88264C2.51986 5.87817 2.51203 5.87527 2.50385 5.87413C2.49567 5.87298 2.48734 5.87363 2.47944 5.87603C2.47154 5.87842 2.46425 5.88251 2.45808 5.888C1.86613 6.51244 1.53187 7.33743 1.52223 8.1978C1.51259 9.05818 1.82827 9.89045 2.40608 10.528C3.64228 11.8286 5.09185 12.9082 6.69208 13.72C6.66708 13.906 6.65008 14.092 6.64108 14.28C4.22327 13.7135 2.03505 12.4247 0.367078 10.585C0.361027 10.5785 0.353532 10.5735 0.345194 10.5704C0.336857 10.5672 0.327907 10.5661 0.319062 10.5671C0.310217 10.5681 0.301723 10.5711 0.294259 10.5759C0.286795 10.5808 0.280568 10.5873 0.276078 10.595C-0.0288306 11.2665 -0.0715974 12.0278 0.15618 12.7293C0.383958 13.4308 0.865813 14.0217 1.50708 14.386C3.15278 15.1216 4.91629 15.5584 6.71508 15.676C6.73908 15.839 6.76808 16 6.80308 16.16C4.61051 16.4475 2.38146 16.1005 0.380078 15.16C0.372432 15.1554 0.363751 15.1528 0.354839 15.1525C0.345927 15.1521 0.337073 15.154 0.329096 15.158C0.321119 15.162 0.314278 15.168 0.309205 15.1753C0.304133 15.1826 0.300994 15.1911 0.300078 15.2C0.255516 15.5284 0.278182 15.8624 0.3667 16.1818C0.455217 16.5012 0.607738 16.7992 0.814997 17.0578C1.02226 17.3164 1.27993 17.5302 1.57235 17.6861C1.86478 17.8421 2.18585 17.937 2.51608 17.965C4.10314 18.0138 5.68937 17.8439 7.23008 17.46ZM28.0171 27.937L26.8531 27.021C26.3905 27.2918 26.0534 27.7341 25.9151 28.252C25.2151 28.352 23.3041 27.926 23.4891 27.645C25.5831 24.7 23.9821 22.945 22.0581 23.045V25.023C22.0451 25.3392 21.9077 25.6375 21.6758 25.8528C21.4439 26.0682 21.1364 26.1833 20.8201 26.173H19.4911C19.1741 26.2058 18.8683 26.3089 18.5961 26.4746C18.3238 26.6403 18.0919 26.8645 17.9171 27.131C17.7423 26.8645 17.5103 26.6403 17.2381 26.4746C16.9658 26.3089 16.6601 26.2058 16.3431 26.173H15.0151C14.6991 26.1828 14.3921 26.0674 14.1606 25.8521C13.9292 25.6368 13.7921 25.3388 13.7791 25.023V23.045C11.8551 22.945 10.2521 24.701 12.3461 27.645C12.5301 27.923 10.5671 28.369 9.64608 28.256C9.51802 28.1251 9.36489 28.0213 9.19582 27.9508C9.02676 27.8804 8.84523 27.8447 8.66208 27.846C8.49547 27.8461 8.33021 27.8759 8.17408 27.934C8.17408 27.934 4.55508 24.508 4.48808 24.474L4.51808 24.404C4.72408 24.018 4.40908 23.598 4.21008 23.628C4.28972 23.4438 4.3248 23.2435 4.31248 23.0432C4.30017 22.8429 4.24079 22.6484 4.13918 22.4754C4.03757 22.3024 3.89659 22.1557 3.72768 22.0474C3.55878 21.9391 3.36671 21.8722 3.16708 21.852C3.20408 22.097 3.22308 22.596 3.22308 22.596C3.22308 22.596 2.23108 22.06 1.73308 22.523C1.29508 23.041 1.90308 23.98 1.90308 23.98C1.90308 23.98 1.39508 23.992 1.14508 23.971C1.18453 24.1684 1.26907 24.3541 1.3921 24.5135C1.51513 24.6729 1.67332 24.8017 1.85433 24.8899C2.03534 24.9781 2.23428 25.0232 2.43563 25.0219C2.63697 25.0205 2.83528 24.9726 3.01508 24.882C2.99808 25.082 3.44308 25.361 3.82208 25.135L3.98708 25.054C4.01708 25.094 7.54108 28.423 7.54108 28.423C7.37188 28.6714 7.30524 28.9756 7.35508 29.272C7.40562 29.5207 7.52919 29.7487 7.71 29.9269C7.8908 30.105 8.12062 30.2252 8.37008 30.272C8.70979 30.3438 9.06405 30.2867 9.36408 30.112L10.2981 30.978C10.3411 31.0174 10.3916 31.0477 10.4465 31.0672C10.5015 31.0866 10.5599 31.0947 10.6181 31.091C10.7219 31.0863 10.8198 31.0415 10.8911 30.9659C10.9624 30.8903 11.0015 30.7899 11.0001 30.686C10.9906 30.5929 10.9463 30.5068 10.8761 30.445C10.8611 30.429 9.92608 29.56 9.92608 29.56C10.9557 28.9521 12.1304 28.6336 13.3261 28.638C13.3691 28.6416 13.4122 28.6337 13.4511 28.6151C13.49 28.5964 13.5232 28.5677 13.5473 28.5319C13.5713 28.4961 13.5854 28.4545 13.588 28.4115C13.5906 28.3684 13.5817 28.3254 13.5621 28.287C13.0221 26.987 14.1841 26.046 15.3871 26.812C16.0866 27.332 16.5988 28.0645 16.8471 28.9C14.8741 29.378 12.3971 30.694 11.8961 32.13C11.7021 32.684 12.3401 33.44 13.1141 33.592C13.1209 33.5937 13.1279 33.5939 13.1348 33.5927C13.1417 33.5915 13.1483 33.5889 13.1541 33.585C13.1601 33.5812 13.1654 33.5762 13.1695 33.5704C13.1736 33.5646 13.1765 33.558 13.1781 33.551C13.4439 32.6093 13.9408 31.749 14.6237 31.0482C15.3065 30.3474 16.1536 29.8282 17.0881 29.538C17.1481 29.699 17.1281 29.647 17.1881 29.809C16.4778 30.1422 15.8477 30.6248 15.341 31.2239C14.8343 31.8229 14.4629 32.5243 14.2521 33.28C14.0861 33.99 14.8761 34.629 15.5311 34.804C15.5385 34.8061 15.5464 34.8065 15.554 34.8052C15.5617 34.804 15.5689 34.801 15.5753 34.7966C15.5817 34.7923 15.5871 34.7865 15.591 34.7798C15.5949 34.7732 15.5973 34.7657 15.5981 34.758C15.6717 33.1398 16.2938 31.5947 17.3621 30.377C17.3831 30.525 17.3991 30.677 17.4101 30.823C16.9704 32.0556 16.7036 33.3432 16.6171 34.649C16.6171 35.4 17.7321 35.924 17.8971 35.997C18.1031 35.924 19.2181 35.397 19.2181 34.649C19.1316 33.3432 18.8647 32.0556 18.4251 30.823C18.4361 30.674 18.4521 30.523 18.4731 30.377C19.5416 31.5946 20.1638 33.1397 20.2371 34.758C20.2378 34.7657 20.2402 34.7732 20.2442 34.7798C20.2481 34.7865 20.2535 34.7923 20.2598 34.7966C20.2662 34.801 20.2735 34.804 20.2811 34.8052C20.2888 34.8065 20.2966 34.8061 20.3041 34.804C20.9581 34.629 21.7491 33.99 21.5831 33.28C21.3721 32.5243 21.0006 31.8231 20.4939 31.2241C19.9872 30.6251 19.3573 30.1424 18.6471 29.809C18.7071 29.648 18.6871 29.7 18.7471 29.538C19.6814 29.8285 20.5284 30.3477 21.2112 31.0485C21.894 31.7493 22.391 32.6095 22.6571 33.551C22.6596 33.5648 22.6675 33.577 22.6791 33.585C22.6914 33.5923 22.706 33.5948 22.7201 33.592C23.4931 33.439 24.1311 32.683 23.9371 32.13C23.4371 30.694 20.9601 29.378 18.9881 28.9C19.2353 28.0632 19.7472 27.3291 20.4471 26.808C21.6471 26.042 22.8121 26.983 22.2711 28.284C22.2517 28.3224 22.243 28.3653 22.2457 28.4082C22.2484 28.4511 22.2626 28.4925 22.2866 28.5281C22.3106 28.5638 22.3437 28.5924 22.3825 28.611C22.4212 28.6296 22.4642 28.6375 22.5071 28.634C23.8225 28.6047 25.1114 29.0057 26.1781 29.776C26.4055 30.1071 26.7186 30.3701 27.0838 30.5371C27.4491 30.7041 27.8529 30.7687 28.2521 30.724C28.7245 30.6874 29.1709 30.4928 29.5193 30.1715C29.8676 29.8502 30.0975 29.421 30.1721 28.953C30.2148 28.5691 30.1438 28.181 29.968 27.8371C29.7922 27.4931 29.5193 27.2083 29.1831 27.018L28.0171 27.934V27.937ZM19.4331 22.032C19.8491 21.878 20.4991 22.002 20.4771 22.602C20.4711 22.737 20.6621 22.737 20.6771 22.602C20.8011 21.702 20.1951 21.448 19.5611 21.552C19.4821 21.244 19.4171 20.975 19.3441 20.707C19.2861 20.491 19.2651 20.085 19.5141 20.085C19.6491 20.085 19.5951 20.464 19.5821 20.626C19.5711 20.769 19.6221 20.854 19.7381 20.858C19.8101 20.858 19.9011 20.77 19.9541 20.708C20.0488 20.6234 20.125 20.5201 20.1778 20.4045C20.2307 20.289 20.259 20.1638 20.2611 20.0368C20.2632 19.9098 20.2389 19.7837 20.1899 19.6666C20.1408 19.5494 20.068 19.4437 19.9761 19.356C19.7265 19.2479 19.4498 19.2187 19.1831 19.2724C18.9164 19.326 18.6725 19.4598 18.4841 19.656C18.411 19.4849 18.3096 19.3273 18.1841 19.19C18.1021 19.09 18.0841 19.026 18.1951 18.942C18.3128 18.8517 18.3903 18.7189 18.4111 18.572C18.4095 18.5322 18.3998 18.4932 18.3827 18.4572C18.3655 18.4213 18.3412 18.3892 18.3113 18.3629C18.2814 18.3366 18.2464 18.3167 18.2086 18.3043C18.1707 18.292 18.1307 18.2874 18.0911 18.291C18.0361 18.2909 17.9817 18.3021 17.9312 18.3239C17.8808 18.3457 17.8354 18.3777 17.7979 18.4179C17.7603 18.458 17.7315 18.5055 17.7131 18.5573C17.6947 18.6091 17.6872 18.6642 17.6911 18.719C17.6917 18.7935 17.7117 18.8666 17.7491 18.931C17.5424 18.9117 17.334 18.9218 17.1301 18.961L19.4681 25.375C19.7706 25.2653 20.0379 25.0761 20.2418 24.8272C20.4458 24.5784 20.5789 24.2791 20.6271 23.961C20.6271 23.482 19.9271 23.641 19.5811 24.014C19.4711 23.407 19.3721 22.847 19.2661 22.29C19.2371 22.136 19.3161 22.08 19.4391 22.034L19.4331 22.032ZM16.1331 17.675L16.6251 19.039C16.2041 19.139 15.5251 19.446 15.5251 19.852C15.5251 20.392 16.4821 20.745 17.0351 20.701C17.0217 20.7599 17.023 20.8211 17.0389 20.8794C17.0547 20.9376 17.0847 20.9911 17.1261 21.035C16.8751 21.0376 16.6309 21.1168 16.4261 21.262C16.3056 21.1315 16.1476 21.0416 15.9739 21.0047C15.8001 20.9678 15.6192 20.9857 15.4561 21.056C15.2361 21.224 15.2301 21.508 15.4561 21.828C15.5446 21.921 15.5972 22.0425 15.6045 22.1707C15.6118 22.2989 15.5734 22.4255 15.4961 22.528C16.1631 22.528 15.9181 21.662 16.1791 21.662C16.147 21.8564 16.1685 22.0559 16.2411 22.239C16.2692 22.3005 16.2808 22.3683 16.2747 22.4357C16.2685 22.503 16.2449 22.5676 16.2061 22.623C15.8705 23.1803 15.6958 23.8195 15.7011 24.47C15.4831 24.47 15.3721 24.415 15.4491 24.116C15.4781 24.006 15.4091 23.926 15.3191 24.063C15.2287 24.222 15.1777 24.4003 15.1701 24.583C15.1701 25.219 15.9271 25.346 16.2161 25.211C16.6516 25.518 17.1583 25.7088 17.6882 25.7653C18.218 25.8218 18.7536 25.7422 19.2441 25.534L16.3481 17.6C16.3441 17.5843 16.3369 17.5695 16.3269 17.5567C16.3169 17.5439 16.3043 17.5334 16.29 17.5257C16.2757 17.518 16.26 17.5134 16.2438 17.5121C16.2276 17.5108 16.2113 17.513 16.196 17.5183C16.1807 17.5237 16.1667 17.5322 16.1548 17.5433C16.1429 17.5543 16.1335 17.5678 16.1271 17.5827C16.1207 17.5976 16.1175 17.6137 16.1177 17.63C16.1178 17.6462 16.1214 17.6622 16.1281 17.677L16.1331 17.675ZM16.0331 24.212C15.9731 23.884 16.4281 23.301 17.0061 22.737C16.9428 22.9414 16.9275 23.1575 16.9613 23.3688C16.9951 23.58 17.0772 23.7806 17.2011 23.955C16.7959 23.9362 16.3929 24.0248 16.0331 24.212Z" fill="white"/>
</g>
</g>
</g>
</g>
<defs>
<clipPath id="clip0_485_4670">
<rect width="35.835" height="36" fill="white"/>
</clipPath>
</defs>
</svg>
