<svg width="172" height="40" viewBox="0 0 172 40" fill="none" xmlns="http://www.w3.org/2000/svg">
<g clip-path="url(#clip0_311_1833)">
<mask id="mask0_311_1833" style="mask-type:luminance" maskUnits="userSpaceOnUse" x="0" y="0" width="172" height="40">
<path d="M172 0H0V40H172V0Z" fill="white"/>
</mask>
<g mask="url(#mask0_311_1833)">
<path fill-rule="evenodd" clip-rule="evenodd" d="M5.87057 0.618408H0V6.46094H5.87057V0.618408Z" fill="#FF6B35"/>
<path d="M5.85843 9.28909V11.766C6.92332 10.7482 8.07923 9.98563 9.31706 9.47524C10.5549 8.96484 11.8807 8.71265 13.2945 8.71265C16.3648 8.71265 18.9709 9.8205 21.1189 12.0362C23.2669 14.2519 24.3409 17.0921 24.3409 20.5598C24.3409 24.0275 23.2305 26.6996 21.0127 28.9483C18.7919 31.1971 16.1645 32.3229 13.1215 32.3229C11.7684 32.3229 10.5063 32.0918 9.3383 31.6324C8.17025 31.17 7.01131 30.4195 5.85843 29.3717V39.9609H0V9.28909H5.85843ZM12.0627 13.9097C10.203 13.9097 8.66174 14.5161 7.43605 15.7261C6.21036 16.936 5.59752 18.5182 5.59752 20.4728C5.59752 22.4273 6.21036 24.0816 7.43605 25.3125C8.66174 26.5435 10.203 27.1589 12.0627 27.1589C13.9225 27.1589 15.3818 26.5345 16.6135 25.2795C17.8453 24.0275 18.4612 22.4303 18.4612 20.4908C18.4612 18.5513 17.8544 16.9841 16.6439 15.7531C15.4334 14.5221 13.9043 13.9067 12.0597 13.9067L12.0627 13.9097Z" fill="white"/>
<path d="M27.563 0.618408H33.4639V31.7435H27.563V0.618408Z" fill="white"/>
<path d="M54.98 9.28909H60.8809V31.7435H54.98V29.3717C53.8271 30.4165 52.6742 31.17 51.5153 31.6324C50.3563 32.0948 49.1003 32.3229 47.7472 32.3229C44.7103 32.3229 42.0829 31.1971 39.8652 28.9483C37.6474 26.6996 36.54 23.9014 36.54 20.5598C36.54 17.2182 37.611 14.2519 39.756 12.0362C41.9009 9.8205 44.507 8.71265 47.5712 8.71265C48.982 8.71265 50.3048 8.96784 51.5426 9.47524C52.7804 9.98563 53.9242 10.7482 54.977 11.766V9.28909H54.98ZM48.7757 13.9097C46.9523 13.9097 45.4354 14.5252 44.2309 15.7561C43.0234 16.9871 42.4197 18.5663 42.4197 20.4938C42.4197 22.4213 43.0326 24.0305 44.2613 25.2825C45.49 26.5345 47.0009 27.1619 48.7969 27.1619C50.593 27.1619 52.1858 26.5465 53.4084 25.3155C54.6281 24.0846 55.2379 22.4723 55.2379 20.4758C55.2379 18.4792 54.6281 16.939 53.4084 15.7291C52.1888 14.5191 50.6446 13.9127 48.7757 13.9127V13.9097Z" fill="white"/>
<path d="M67.1553 0.618408H73.0562V9.28913H76.5573V14.1379H73.0562V31.7435H67.1553V14.1379H64.1274V9.28913H67.1553V0.618408Z" fill="white"/>
<path d="M79.937 9.28916H82.0334C82.0486 6.34388 82.0971 4.60253 82.1851 4.06811C82.3429 2.83115 82.889 1.84939 83.8173 1.12583C84.7457 0.402271 86.0624 0.0419922 87.7614 0.0419922C88.9871 0.0419922 90.3705 0.309199 91.9118 0.846616V5.13994C91.0623 4.90576 90.3614 4.78867 89.8153 4.78867C89.1236 4.78867 88.62 4.92678 88.3014 5.20299C88.0708 5.41015 87.9556 5.83648 87.9556 6.48198L87.9343 9.28916H91.6751V14.0569H87.9343V31.7436H82.0334V14.0569H79.937V9.28916Z" fill="white"/>
<path d="M104.963 8.70979C107.181 8.70979 109.268 9.2382 111.222 10.298C113.176 11.3578 114.699 12.796 115.794 14.6124C116.889 16.4288 117.435 18.3893 117.435 20.4939C117.435 22.5986 116.883 24.5951 115.782 26.4385C114.681 28.282 113.179 29.7231 111.274 30.7619C109.371 31.8007 107.275 32.3201 104.984 32.3201C101.614 32.3201 98.7345 31.1732 96.3499 28.8824C93.9653 26.5916 92.7729 23.8085 92.7729 20.533C92.7729 17.0232 94.12 14.099 96.8141 11.7602C99.1775 9.72458 101.893 8.70679 104.963 8.70679V8.70979ZM105.06 14.0149C103.228 14.0149 101.699 14.6244 100.479 15.8403C99.2594 17.0593 98.6496 18.6175 98.6496 20.5149C98.6496 22.4124 99.2533 24.0517 100.458 25.2616C101.662 26.4716 103.188 27.078 105.039 27.078C106.89 27.078 108.425 26.4656 109.65 25.2406C110.876 24.0157 111.492 22.4394 111.492 20.5149C111.492 18.5904 110.888 17.0232 109.684 15.8193C108.479 14.6154 106.938 14.0119 105.06 14.0119V14.0149Z" fill="white"/>
<path d="M120.667 9.28917H125.724V12.1174C126.27 11.0035 126.998 10.1568 127.908 9.57739C128.816 9.00094 129.811 8.70972 130.891 8.70972C131.655 8.70972 132.453 8.90187 133.291 9.28917L131.452 14.1379C130.76 13.8077 130.19 13.6425 129.744 13.6425C128.837 13.6425 128.069 14.18 127.441 15.2518C126.813 16.3236 126.501 18.4312 126.501 21.5687L126.522 22.6615V31.7436H120.664V9.28917H120.667Z" fill="white"/>
<path d="M135.963 9.28917H141.864V11.8682C142.875 10.8083 143.994 10.0187 145.229 9.49332C146.461 8.97092 147.808 8.70972 149.264 8.70972C150.72 8.70972 152.061 9.05498 153.244 9.74252C154.428 10.4301 155.38 11.4358 156.099 12.7569C157.037 11.4358 158.187 10.4301 159.549 9.74252C160.911 9.05498 162.401 8.70972 164.015 8.70972C165.629 8.70972 167.158 9.08201 168.429 9.82358C169.697 10.5682 170.61 11.5379 171.166 12.7328C171.721 13.9308 172 15.8763 172 18.5724V31.7406H166.056V20.3467C166.056 17.8008 165.726 16.0774 165.061 15.1767C164.4 14.276 163.405 13.8257 162.079 13.8257C161.069 13.8257 160.168 14.1019 159.367 14.6513C158.566 15.2007 157.971 15.9633 157.583 16.9331C157.194 17.9028 157 19.461 157 21.6077V31.7406H151.057V20.8631C151.057 18.8546 150.902 17.3985 150.593 16.4978C150.283 15.5971 149.816 14.9245 149.194 14.4862C148.572 14.0449 147.823 13.8257 146.94 13.8257C145.957 13.8257 145.065 14.1049 144.264 14.6603C143.463 15.2188 142.862 15.9994 142.465 17.0021C142.068 18.0079 141.87 19.5901 141.87 21.7488V31.7376H135.969V9.28917H135.963Z" fill="white"/>
</g>
</g>
<defs>
<clipPath id="clip0_311_1833">
<rect width="172" height="40" fill="white"/>
</clipPath>
</defs>
</svg>
