<svg>
  <symbol id="arrow" xmlns="http://www.w3.org/2000/svg" width="6" height="10" viewBox="0 0 6 10" fill="none">
		<path fill-rule="evenodd" clip-rule="evenodd" d="M1.22462 0.198869L5.78989 4.51989C6.07004 4.78505 6.07004 5.21495 5.78989 5.48011L1.22462 9.80113C0.944468 10.0663 0.490259 10.0663 0.210111 9.80113C-0.070037 9.53597 -0.070037 9.10606 0.210111 8.8409L4.26813 5L0.210111 1.1591C-0.070037 0.893936 -0.070037 0.464029 0.210111 0.198869C0.490259 -0.0662898 0.944468 -0.0662898 1.22462 0.198869Z" fill="currentColor"/>
	</symbol>
	<symbol id="document-file" width="24" height="24" viewBox="0 0 24 24" fill="none" xmlns="http://www.w3.org/2000/svg">
		<g id="vuesax/linear/document-text">
		<g id="document-text">
		<path id="Vector" d="M22 10V15C22 20 20 22 15 22H9C4 22 2 20 2 15V9C2 4 4 2 9 2H14" stroke="currentColor" stroke-width="1.5" stroke-linecap="round" stroke-linejoin="round"/>
		<path id="Vector_2" d="M22 10H18C15 10 14 9 14 6V2L22 10Z" stroke="currentColor" stroke-width="1.5" stroke-linecap="round" stroke-linejoin="round"/>
		<path id="Vector_3" d="M7 13H13" stroke="currentColor" stroke-width="1.5" stroke-linecap="round" stroke-linejoin="round"/>
		<path id="Vector_4" d="M7 17H11" stroke="currentColor" stroke-width="1.5" stroke-linecap="round" stroke-linejoin="round"/>
		</g>
		</g>
	</symbol>
	<symbol id="message-question" width="35" height="35" viewBox="0 0 35 35" fill="none" xmlns="http://www.w3.org/2000/svg">
		<g id="vuesax/linear/message-question">
		<g id="message-question">
		<path id="Vector" d="M24.7915 26.8771H18.9582L12.4686 31.1937C11.5061 31.8354 10.2082 31.15 10.2082 29.9834V26.8771C5.83317 26.8771 2.9165 23.9605 2.9165 19.5855V10.8354C2.9165 6.46037 5.83317 3.5437 10.2082 3.5437H24.7915C29.1665 3.5437 32.0832 6.46037 32.0832 10.8354V19.5855C32.0832 23.9605 29.1665 26.8771 24.7915 26.8771Z" stroke="currentColor" stroke-width="1.5" stroke-miterlimit="10" stroke-linecap="round" stroke-linejoin="round"/>
		<path id="Vector_2" d="M17.4999 16.5667V16.2605C17.4999 15.2688 18.1124 14.7438 18.7249 14.3208C19.3229 13.9125 19.9207 13.3875 19.9207 12.425C19.9207 11.0834 18.8416 10.0042 17.4999 10.0042C16.1582 10.0042 15.0791 11.0834 15.0791 12.425" stroke="currentColor" stroke-width="1.5" stroke-linecap="round" stroke-linejoin="round"/>
		<path id="Vector_3" d="M17.4936 20.052H17.5067" stroke="currentColor" stroke-width="1.5" stroke-linecap="round" stroke-linejoin="round"/>
		</g>
		</g>
	</symbol>
	<symbol id="vkontakte" xmlns="http://www.w3.org/2000/svg" width="17" height="11" viewBox="0 0 17 11" fill="none">
		<g clip-path="url(#clip0_485_4668)">
			<path d="M3.12909 0.833496C3.22213 5.37963 5.28124 7.30721 6.91433 7.70273V0.833496H9.54637V4.75537C11.1574 4.5862 12.8517 2.7992 13.4222 0.833496H16.0542C15.616 3.25667 13.7797 5.04367 12.4747 5.77753C13.7797 6.3732 15.8731 7.93147 16.6688 10.7525H13.7723C13.1504 8.86547 11.6006 7.40728 9.54882 7.20713V10.7525H9.23297C3.64815 10.7502 0.465222 7.02843 0.333008 0.833496H3.12909Z" fill="currentColor"/>
		</g>
		<defs>
			<clipPath id="clip0_485_4668">
				<rect width="16.3333" height="9.91667" fill="currentColor" transform="translate(0.333008 0.833496)"/>
			</clipPath>
		</defs>
	</symbol>
	<symbol id="telegram" xmlns="http://www.w3.org/2000/svg" width="35" height="35" viewBox="0 0 35 35" fill="none">
		<path d="M21.3222 12.3427C21.3222 12.3427 22.5094 11.8882 22.4105 12.992C22.3775 13.4465 22.0807 15.0372 21.8499 16.7579L21.0584 21.8548C21.0584 21.8548 20.9925 22.6014 20.3989 22.7313C19.8053 22.8611 18.9149 22.2768 18.75 22.1469C18.6181 22.0496 16.2768 20.5886 15.4523 19.8744C15.2215 19.6796 14.9576 19.2901 15.4853 18.8356L18.9479 15.5891C19.3436 15.1996 19.7393 14.2906 18.0905 15.3944L13.4737 18.4785C13.4737 18.4785 12.946 18.8031 11.9567 18.5109L9.81322 17.8616C9.81322 17.8616 9.02177 17.3747 10.3738 16.8877C13.6716 15.3619 17.7277 13.8036 21.3222 12.3427Z" fill="currentColor"/>
	</symbol>
	<symbol id="profile" width="24" height="24" viewBox="0 0 24 24" fill="none" xmlns="http://www.w3.org/2000/svg">
		<path d="M12.1601 10.87C12.0601 10.86 11.9401 10.86 11.8301 10.87C9.45006 10.79 7.56006 8.84 7.56006 6.44C7.56006 3.99 9.54006 2 12.0001 2C14.4501 2 16.4401 3.99 16.4401 6.44C16.4301 8.84 14.5401 10.79 12.1601 10.87Z" stroke="currentColor" stroke-width="1.5" stroke-linecap="round" stroke-linejoin="round"/>
		<path d="M7.16021 14.56C4.74021 16.18 4.74021 18.82 7.16021 20.43C9.91021 22.27 14.4202 22.27 17.1702 20.43C19.5902 18.81 19.5902 16.17 17.1702 14.56C14.4302 12.73 9.92021 12.73 7.16021 14.56Z" stroke="currentColor" stroke-width="1.5" stroke-linecap="round" stroke-linejoin="round"/>
	</symbol>
	<symbol id="message" width="24" height="24" viewBox="0 0 24 24" fill="none" xmlns="http://www.w3.org/2000/svg">
		<path d="M17 20.5H7C4 20.5 2 19 2 15.5V8.5C2 5 4 3.5 7 3.5H17C20 3.5 22 5 22 8.5V15.5C22 19 20 20.5 17 20.5Z" stroke="currentColor" stroke-width="1.5" stroke-miterlimit="10" stroke-linecap="round" stroke-linejoin="round"/>
		<path d="M17 9L13.87 11.5C12.84 12.32 11.15 12.32 10.12 11.5L7 9" stroke="currentColor" stroke-width="1.5" stroke-miterlimit="10" stroke-linecap="round" stroke-linejoin="round"/>
	</symbol>
	<symbol id="phone" width="17" height="17" viewBox="0 0 17 17" fill="none" xmlns="http://www.w3.org/2000/svg">
		<path id="Vector" d="M15.5622 12.9841C15.5622 13.2391 15.5055 13.5012 15.3851 13.7562C15.2647 14.0112 15.1088 14.252 14.9034 14.4787C14.5563 14.8612 14.1738 15.1374 13.7417 15.3145C13.3167 15.4916 12.8563 15.5837 12.3605 15.5837C11.638 15.5837 10.8659 15.4137 10.0513 15.0666C9.23675 14.7195 8.42216 14.252 7.61466 13.6641C6.80008 13.0691 6.028 12.4103 5.29133 11.6807C4.56175 10.9441 3.903 10.172 3.31508 9.36449C2.73425 8.55699 2.26675 7.74949 1.92675 6.94908C1.58675 6.14158 1.41675 5.36949 1.41675 4.63283C1.41675 4.15116 1.50175 3.69074 1.67175 3.26574C1.84175 2.83366 2.11091 2.43699 2.48633 2.08283C2.93966 1.63658 3.4355 1.41699 3.95966 1.41699C4.158 1.41699 4.35633 1.45949 4.53341 1.54449C4.71758 1.62949 4.8805 1.75699 5.008 1.94116L6.65133 4.25741C6.77883 4.43449 6.87091 4.59741 6.93466 4.75324C6.99841 4.90199 7.03383 5.05074 7.03383 5.18533C7.03383 5.35533 6.98425 5.52533 6.88508 5.68824C6.793 5.85116 6.65841 6.02116 6.48841 6.19116L5.95008 6.75074C5.87216 6.82866 5.83675 6.92074 5.83675 7.03408C5.83675 7.09074 5.84383 7.14033 5.858 7.19699C5.87925 7.25366 5.9005 7.29616 5.91466 7.33866C6.04216 7.57241 6.26175 7.87699 6.57341 8.24533C6.89216 8.61366 7.23216 8.98908 7.6005 9.36449C7.983 9.73991 8.35133 10.087 8.72675 10.4057C9.09508 10.7174 9.39966 10.9299 9.6405 11.0574C9.67591 11.0716 9.71841 11.0928 9.768 11.1141C9.82466 11.1353 9.88133 11.1424 9.94508 11.1424C10.0655 11.1424 10.1576 11.0999 10.2355 11.022L10.7738 10.4907C10.9509 10.3137 11.1209 10.1791 11.2838 10.0941C11.4467 9.99491 11.6097 9.94533 11.7867 9.94533C11.9213 9.94533 12.063 9.97366 12.2188 10.0374C12.3747 10.1012 12.5376 10.1932 12.7147 10.3137L15.0592 11.9782C15.2434 12.1057 15.3709 12.2545 15.4488 12.4316C15.5197 12.6087 15.5622 12.7857 15.5622 12.9841Z" stroke="currentColor" stroke-width="1.5" stroke-miterlimit="10"/>
	</symbol>
	<symbol id="home" width="15" height="15" viewBox="0 0 15 15" fill="none" xmlns="http://www.w3.org/2000/svg">
		<g opacity="0.7">
		<path d="M5.6375 1.77498L2.26875 4.39998C1.70625 4.83748 1.25 5.76873 1.25 6.47498V11.1062C1.25 12.5562 2.43125 13.7437 3.88125 13.7437H11.1188C12.5688 13.7437 13.75 12.5562 13.75 11.1125V6.56248C13.75 5.80623 13.2438 4.83748 12.625 4.40623L8.7625 1.69998C7.8875 1.08748 6.48125 1.11873 5.6375 1.77498Z" stroke="currentColor" stroke-width="1.5" stroke-linecap="round" stroke-linejoin="round"/>
		<path d="M7.5 11.2438V9.36877" stroke="currentColor" stroke-width="1.5" stroke-linecap="round" stroke-linejoin="round"/>
		</g>
	</symbol>
	<symbol id="location" width="24" height="24" viewBox="0 0 24 24" fill="none" xmlns="http://www.w3.org/2000/svg">
		<path d="M12 13.4299C13.7231 13.4299 15.12 12.0331 15.12 10.3099C15.12 8.58681 13.7231 7.18994 12 7.18994C10.2769 7.18994 8.88 8.58681 8.88 10.3099C8.88 12.0331 10.2769 13.4299 12 13.4299Z" stroke="currentColor" stroke-width="1.5"/>
		<path d="M3.62001 8.49C5.59001 -0.169998 18.42 -0.159997 20.38 8.5C21.53 13.58 18.37 17.88 15.6 20.54C13.59 22.48 10.41 22.48 8.39001 20.54C5.63001 17.88 2.47001 13.57 3.62001 8.49Z" stroke="currentColor" stroke-width="1.5"/>
	</symbol>
	<symbol id="phone-2" width="24" height="24" viewBox="0 0 24 24" fill="none" xmlns="http://www.w3.org/2000/svg">
		<path d="M21.97 18.33C21.97 18.69 21.89 19.06 21.72 19.42C21.55 19.78 21.33 20.12 21.04 20.44C20.55 20.98 20.01 21.37 19.4 21.62C18.8 21.87 18.15 22 17.45 22C16.43 22 15.34 21.76 14.19 21.27C13.04 20.78 11.89 20.12 10.75 19.29C9.6 18.45 8.51 17.52 7.47 16.49C6.44 15.45 5.51 14.36 4.68 13.22C3.86 12.08 3.2 10.94 2.72 9.81C2.24 8.67 2 7.58 2 6.54C2 5.86 2.12 5.21 2.36 4.61C2.6 4 2.98 3.44 3.51 2.94C4.15 2.31 4.85 2 5.59 2C5.87 2 6.15 2.06 6.4 2.18C6.66 2.3 6.89 2.48 7.07 2.74L9.39 6.01C9.57 6.26 9.7 6.49 9.79 6.71C9.88 6.92 9.93 7.13 9.93 7.32C9.93 7.56 9.86 7.8 9.72 8.03C9.59 8.26 9.4 8.5 9.16 8.74L8.4 9.53C8.29 9.64 8.24 9.77 8.24 9.93C8.24 10.01 8.25 10.08 8.27 10.16C8.3 10.24 8.33 10.3 8.35 10.36C8.53 10.69 8.84 11.12 9.28 11.64C9.73 12.16 10.21 12.69 10.73 13.22C11.27 13.75 11.79 14.24 12.32 14.69C12.84 15.13 13.27 15.43 13.61 15.61C13.66 15.63 13.72 15.66 13.79 15.69C13.87 15.72 13.95 15.73 14.04 15.73C14.21 15.73 14.34 15.67 14.45 15.56L15.21 14.81C15.46 14.56 15.7 14.37 15.93 14.25C16.16 14.11 16.39 14.04 16.64 14.04C16.83 14.04 17.03 14.08 17.25 14.17C17.47 14.26 17.7 14.39 17.95 14.56L21.26 16.91C21.52 17.09 21.7 17.3 21.81 17.55C21.91 17.8 21.97 18.05 21.97 18.33Z" stroke="currentColor" stroke-width="1.5" stroke-miterlimit="10"/>
		<path d="M18.5 9C18.5 8.4 18.03 7.48 17.33 6.73C16.69 6.04 15.84 5.5 15 5.5" stroke="currentColor" stroke-width="1.5" stroke-linecap="round" stroke-linejoin="round"/>
		<path d="M22 9C22 5.13 18.87 2 15 2" stroke="currentColor" stroke-width="1.5" stroke-linecap="round" stroke-linejoin="round"/>
	</symbol>
	<symbol id="message-2" width="24" height="24" viewBox="0 0 24 24" fill="none" xmlns="http://www.w3.org/2000/svg">
		<path d="M22 10.5V15.5C22 19 20 20.5 17 20.5H7C4 20.5 2 19 2 15.5V8.5C2 5 4 3.5 7 3.5H14" stroke="currentColor" stroke-width="1.5" stroke-miterlimit="10" stroke-linecap="round" stroke-linejoin="round"/>
		<path d="M7 9L10.13 11.5C11.16 12.32 12.85 12.32 13.88 11.5L15.06 10.56" stroke="currentColor" stroke-width="1.5" stroke-miterlimit="10" stroke-linecap="round" stroke-linejoin="round"/>
		<path d="M19.5 8C20.8807 8 22 6.88071 22 5.5C22 4.11929 20.8807 3 19.5 3C18.1193 3 17 4.11929 17 5.5C17 6.88071 18.1193 8 19.5 8Z" stroke="currentColor" stroke-width="1.5" stroke-miterlimit="10" stroke-linecap="round" stroke-linejoin="round"/>
	</symbol>
	<symbol id="arrow-line" width="21" height="12" viewBox="0 0 21 12" fill="none" xmlns="http://www.w3.org/2000/svg">
		<path d="M0.46967 5.46967C0.176777 5.76256 0.176777 6.23744 0.46967 6.53033L5.24264 11.3033C5.53553 11.5962 6.01041 11.5962 6.3033 11.3033C6.59619 11.0104 6.59619 10.5355 6.3033 10.2426L2.06066 6L6.3033 1.75736C6.59619 1.46447 6.59619 0.989593 6.3033 0.696699C6.01041 0.403806 5.53553 0.403806 5.24264 0.696699L0.46967 5.46967ZM1 6.75H21V5.25H1V6.75Z" fill="currentColor"/>
	</symbol>
	<symbol id="li-check" width="20" height="20" viewBox="0 0 20 20" fill="none" xmlns="http://www.w3.org/2000/svg">
		<g clip-path="url(#clip0_413_2235)">
		<path d="M9.07705 0.040267C3.57878 0.549851 -0.466943 5.42186 0.0426416 10.9225C0.552226 16.4232 5.42423 20.4665 10.9249 19.9569C15.7183 19.5116 19.514 15.7159 19.9593 10.9225C20.4522 5.40519 16.3803 0.533183 10.863 0.040267C10.27 -0.0121202 9.67236 -0.0121202 9.07943 0.040267H9.07705ZM15.3707 7.75309L9.44376 13.6181C9.07467 13.9776 8.48412 13.9776 8.11503 13.6181L4.62176 10.282C4.24076 9.91763 4.22885 9.3128 4.59318 8.9318C4.95751 8.5508 5.56235 8.5389 5.94334 8.90323L8.76273 11.6083L14.0395 6.39579C14.4229 6.03622 15.0254 6.05527 15.3849 6.43865C15.7326 6.80774 15.7278 7.38638 15.3778 7.75071H15.3707V7.75309Z" fill="currentColor"/>
		</g>
		<defs>
		<clipPath id="clip0_413_2235">
		<rect width="20" height="20" fill="white"/>
		</clipPath>
		</defs>
	</symbol>

</svg>