<svg width="20" height="20" viewBox="0 0 20 20" fill="none" xmlns="http://www.w3.org/2000/svg">
<g clip-path="url(#clip0_413_2235)">
<path d="M9.07705 0.040267C3.57878 0.549851 -0.466943 5.42186 0.0426416 10.9225C0.552226 16.4232 5.42423 20.4665 10.9249 19.9569C15.7183 19.5116 19.514 15.7159 19.9593 10.9225C20.4522 5.40519 16.3803 0.533183 10.863 0.040267C10.27 -0.0121202 9.67236 -0.0121202 9.07943 0.040267H9.07705ZM15.3707 7.75309L9.44376 13.6181C9.07467 13.9776 8.48412 13.9776 8.11503 13.6181L4.62176 10.282C4.24076 9.91763 4.22885 9.3128 4.59318 8.9318C4.95751 8.5508 5.56235 8.5389 5.94334 8.90323L8.76273 11.6083L14.0395 6.39579C14.4229 6.03622 15.0254 6.05527 15.3849 6.43865C15.7326 6.80774 15.7278 7.38638 15.3778 7.75071H15.3707V7.75309Z" fill="#FF6B35"/>
</g>
<defs>
<clipPath id="clip0_413_2235">
<rect width="20" height="20" fill="white"/>
</clipPath>
</defs>
</svg>
