<svg width="63" height="76" viewBox="0 0 63 76" fill="none" xmlns="http://www.w3.org/2000/svg">
<g filter="url(#filter0_d_408_1556)">
<path d="M59 27.5666C59 12.2901 46.3958 0 31.5 0C16.6042 0 4 12.2901 4 27.5666V28.7152C4 28.8301 4.45833 32.8502 4.91667 34.5731C8.125 48.0118 19.0104 58.2344 31.5 67.7679C43.9896 58.2344 54.875 48.0118 58.0833 34.5731C58.5417 32.8502 59 28.9449 59 28.7152V27.5666Z" fill="#FF6B35"/>
<path d="M6.862 34.1087L6.85604 34.0837L6.84945 34.0589C6.6559 33.3314 6.44065 32.0103 6.26736 30.7654C6.18344 30.1625 6.11348 29.6084 6.06468 29.1996C6.04026 28.995 6.02145 28.8295 6.00902 28.7144C6.0053 28.68 6.00232 28.6516 6 28.629V27.5666C6 13.4063 17.697 2 31.5 2C45.303 2 57 13.4063 57 27.5666V28.6519C56.9983 28.6707 56.9952 28.7053 56.9897 28.76C56.9776 28.8782 56.9592 29.0451 56.935 29.251C56.8865 29.6619 56.8169 30.2105 56.7331 30.8053C56.5605 32.0308 56.3451 33.3278 56.1506 34.0589L56.144 34.0837L56.138 34.1087C53.2072 46.3847 43.4373 56.0033 31.5 65.2453C19.5627 56.0033 9.79276 46.3847 6.862 34.1087ZM5.99327 28.5574C5.99339 28.5579 5.99406 28.5653 5.99495 28.5776C5.9936 28.5629 5.99316 28.5568 5.99327 28.5574Z" stroke="white" stroke-width="4"/>
</g>
<path fill-rule="evenodd" clip-rule="evenodd" d="M28 18H24V22H28V18Z" fill="white"/>
<path d="M27.8509 23.3874V25.052C28.5509 24.368 29.3107 23.8555 30.1244 23.5125C30.9381 23.1695 31.8095 23 32.7389 23C34.7571 23 36.4701 23.7445 37.8821 25.2336C39.294 26.7226 40 28.6313 40 30.9618C40 33.2922 39.2701 35.0879 37.8123 36.5992C36.3525 38.1104 34.6255 38.867 32.6252 38.867C31.7358 38.867 30.9061 38.7117 30.1384 38.403C29.3706 38.0922 28.6087 37.5878 27.8509 36.8836V44H24V23.3874H27.8509ZM31.9292 26.4926C30.7067 26.4926 29.6936 26.9002 28.8879 27.7133C28.0823 28.5264 27.6794 29.5897 27.6794 30.9032C27.6794 32.2168 28.0823 33.3285 28.8879 34.1557C29.6936 34.983 30.7067 35.3966 31.9292 35.3966C33.1517 35.3966 34.1109 34.9769 34.9206 34.1335C35.7303 33.2922 36.1351 32.2188 36.1351 30.9154C36.1351 29.6119 35.7363 28.5587 34.9405 27.7315C34.1448 26.9042 33.1397 26.4906 31.9272 26.4906L31.9292 26.4926Z" fill="white"/>
<defs>
<filter id="filter0_d_408_1556" x="0" y="0" width="63" height="75.7681" filterUnits="userSpaceOnUse" color-interpolation-filters="sRGB">
<feFlood flood-opacity="0" result="BackgroundImageFix"/>
<feColorMatrix in="SourceAlpha" type="matrix" values="0 0 0 0 0 0 0 0 0 0 0 0 0 0 0 0 0 0 127 0" result="hardAlpha"/>
<feOffset dy="4"/>
<feGaussianBlur stdDeviation="2"/>
<feComposite in2="hardAlpha" operator="out"/>
<feColorMatrix type="matrix" values="0 0 0 0 0 0 0 0 0 0 0 0 0 0 0 0 0 0 0.25 0"/>
<feBlend mode="normal" in2="BackgroundImageFix" result="effect1_dropShadow_408_1556"/>
<feBlend mode="normal" in="SourceGraphic" in2="effect1_dropShadow_408_1556" result="shape"/>
</filter>
</defs>
</svg>
