<svg width="35" height="35" viewBox="0 0 35 35" fill="none" xmlns="http://www.w3.org/2000/svg">
<g id="vuesax/linear/message-question">
<g id="message-question">
<path id="Vector" d="M24.7915 26.8771H18.9582L12.4686 31.1937C11.5061 31.8354 10.2082 31.15 10.2082 29.9834V26.8771C5.83317 26.8771 2.9165 23.9605 2.9165 19.5855V10.8354C2.9165 6.46037 5.83317 3.5437 10.2082 3.5437H24.7915C29.1665 3.5437 32.0832 6.46037 32.0832 10.8354V19.5855C32.0832 23.9605 29.1665 26.8771 24.7915 26.8771Z" stroke="#FF6B35" stroke-width="1.5" stroke-miterlimit="10" stroke-linecap="round" stroke-linejoin="round"/>
<path id="Vector_2" d="M17.4999 16.5667V16.2605C17.4999 15.2688 18.1124 14.7438 18.7249 14.3208C19.3229 13.9125 19.9207 13.3875 19.9207 12.425C19.9207 11.0834 18.8416 10.0042 17.4999 10.0042C16.1582 10.0042 15.0791 11.0834 15.0791 12.425" stroke="#FF6B35" stroke-width="1.5" stroke-linecap="round" stroke-linejoin="round"/>
<path id="Vector_3" d="M17.4936 20.052H17.5067" stroke="#FF6B35" stroke-width="1.5" stroke-linecap="round" stroke-linejoin="round"/>
</g>
</g>
</svg>
